# xmcd
#
# Track frame offsets: 
#        187
#        21877
#        41567
#        71722
#        89920
#        102620
#        124652
#        149105
#
# Disc length: 2275 seconds
#
# Revision: 2
# Processed by: cddbd v1.4PL0 Copyright (c) Steve Scherf et al.
# Submitted via: ExactAudioCopy v0.95a3
#
DISCID=7e08e108
DTITLE=Bill Evans - Trio '65
DYEAR=1965
DGENRE=Jazz
TTITLE0=Israel
TTITLE1=Elsa
TTITLE2=Love Is Here to Stay
TTITLE3='Round Midnight
TTITLE4=How My Heart Sings
TTITLE5=Who Can I Turn To (When Nobody Needs Me)
TTITLE6=Come Rain or Come Shine
TTITLE7=If You Could See Me Now
EXTD=
EXTT0=
EXTT1=
EXTT2=
EXTT3=
EXTT4=
EXTT5=
EXTT6=
EXTT7=
PLAYORDER=
